<svg xmlns="http://www.w3.org/2000/svg" width="108" height="28" viewBox="0 0 108 28">
    <path data-name="패스 557" d="M85.532 12.475a.751.751 0 0 0 .538-.209.967.967 0 0 0 .3-.667l.306-8.628a.858.858 0 0 0-.767-.934.75.75 0 0 0-.539.208.961.961 0 0 0-.294.669l-.307 8.628a.962.962 0 0 0 .246.687.752.752 0 0 0 .522.247" transform="translate(-63.31 -1.521)" style="fill:#fff"/>
    <path data-name="패스 558" d="M58.455 15.677a.861.861 0 0 0-.975-.716l-3.392.3a.766.766 0 0 1-.589-.185.608.608 0 0 1-.2-.46.919.919 0 0 1 .808-.839l2.272-.305a.9.9 0 0 0 .758-.907l-.106-2.5a.871.871 0 0 0-.833-.821l-3.721-.1a.963.963 0 0 0-.684.252.732.732 0 0 0-.03 1.061.966.966 0 0 0 .67.291l2.221.063c.445.011.818.278.831.595s-.335.623-.777.684l-2.2.3a.955.955 0 0 0-.8.909l-.024 2.992a.722.722 0 0 0 .8.738l5.141-.464a.861.861 0 0 0 .831-.879" transform="translate(-38.503 -6.825)" style="fill:#fff"/>
    <path data-name="패스 559" d="M79.347 48.341a.965.965 0 0 0-.707-.18l-2.884.389a.714.714 0 0 1-.822-.693l-.056-1.446a.859.859 0 0 0-.837-.874.75.75 0 0 0-.521.247.961.961 0 0 0-.244.69l.126 3.2a.725.725 0 0 0 .835.7l4.619-.622a.859.859 0 0 0 .79-.915.745.745 0 0 0-.3-.495" transform="translate(-54.728 -34.007)" style="fill:#fff"/>
    <path data-name="패스 560" d="M22.786 13.1a.751.751 0 0 0-.537.21.958.958 0 0 0-.295.667l-.054 1.666a.9.9 0 0 1-.836.847l-1.679.078a.862.862 0 0 0-.866.844.746.746 0 0 0 .252.518.969.969 0 0 0 .69.24l1.549-.07a.722.722 0 0 1 .77.761l-.11 3.086a.86.86 0 0 0 .77.933.748.748 0 0 0 .537-.208.962.962 0 0 0 .3-.669l.283-7.962a.862.862 0 0 0-.77-.934" transform="translate(-13.828 -9.785)" style="fill:#fff"/>
    <path data-name="패스 561" d="M2.676 19.128a2.679 2.679 0 1 0 2.677 2.679 2.681 2.681 0 0 0-2.677-2.679m0 3.94a1.261 1.261 0 1 1 1.26-1.261 1.262 1.262 0 0 1-1.26 1.261" transform="translate(0 -14.284)" style="fill:#fff"/>
    <path data-name="패스 562" d="M133.117 10.015a.752.752 0 0 0-.538.209.959.959 0 0 0-.295.666L132 18.854a.964.964 0 0 0 .246.688.733.733 0 0 0 1.06.037.966.966 0 0 0 .3-.668l.283-7.961a.859.859 0 0 0-.769-.934" transform="translate(-98.592 -7.479)" style="fill:#fff"/>
    <path data-name="패스 563" d="M106.484 19.128a2.679 2.679 0 1 0 2.677 2.679 2.681 2.681 0 0 0-2.677-2.679m0 3.94a1.261 1.261 0 1 1 1.26-1.261 1.262 1.262 0 0 1-1.26 1.261" transform="translate(-77.533 -14.284)" style="fill:#fff"/>
    <path data-name="패스 564" d="M176.1 3.133v9.917h-2.482V5.606h-6.2V3.133z" transform="translate(-125.042 -2.34)" style="fill:#fff"/>
    <path data-name="패스 565" d="M172.469 30.825v5.77h3.631v2.483h-8.684v-2.483h2.572v-5.77z" transform="translate(-125.042 -23.02)" style="fill:#fff"/>
    <path data-name="패스 566" d="M213.3.016V5.19h3.409v2.484H213.3v12.755h-2.483V.016z" transform="translate(-157.462 -.012)" style="fill:#fff"/>
    <path data-name="패스 567" d="M405.907.016V5.19h3.411v2.484h-3.411v12.755h-2.482V.016z" transform="translate(-301.318 -.012)" style="fill:#fff"/>
    <path data-name="패스 568" d="M363.124 2.929a4.993 4.993 0 1 0 4.99 4.992 5 5 0 0 0-4.99-4.992m0 7.507a2.516 2.516 0 1 1 2.514-2.516 2.518 2.518 0 0 1-2.514 2.516" transform="translate(-267.49 -2.188)" style="fill:#fff"/>
    <path data-name="패스 569" d="M323.631 3.175v2.477h-7.392v4.894h7.392v2.488h-3.6v2.934h3.6v2.488h-9.874v-2.488h3.8v-2.934h-3.8V3.175z" transform="translate(-234.345 -2.371)" style="fill:#fff"/>
    <path data-name="패스 570" d="M318.379 70.475a5.077 5.077 0 1 0 5.075 5.077 5.081 5.081 0 0 0-5.075-5.077m0 7.664a2.588 2.588 0 1 1 2.587-2.588 2.59 2.59 0 0 1-2.587 2.588" transform="translate(-234.007 -52.629)" style="fill:#fff"/>
    <path data-name="사각형 1569" transform="translate(62.824)" style="fill:#fff" d="M0 0h5.469v2.252H0z"/>
    <path data-name="패스 571" d="M278.032.016V5.19h3.413v2.484h-3.413v10.282h3.237v9.91h-2.483v-7.439h-6.2v-2.471h2.969V.016z" transform="translate(-203.593 -.012)" style="fill:#fff"/>
    <path data-name="패스 572" d="M249.559 13.141h-9.477v2.354h.8l-.033.078a4.391 4.391 0 0 0-.339 1.694 4.32 4.32 0 1 0 8.294-1.694l-.034-.078h.794zm-4.735 6.044a1.919 1.919 0 1 1 1.918-1.919 1.921 1.921 0 0 1-1.918 1.919" transform="translate(-179.317 -9.813)" style="fill:#fff"/>
</svg>
