<svg xmlns="http://www.w3.org/2000/svg" width="70" height="51.899" viewBox="0 0 70 51.899">
    <path data-name="패스 610" d="M221.4 27.493a13.055 13.055 0 0 0-13.162-12.947 13.721 13.721 0 0 0-1.65.1 21.125 21.125 0 0 0-39.736-1.327c-.13-.005-.259-.017-.388-.017A14.817 14.817 0 0 0 151.4 27.858a14.809 14.809 0 0 0 14.93 14.689 15.659 15.659 0 0 0 2.928-.266 12.949 12.949 0 0 0 18.624 3.9 11.177 11.177 0 0 0 8.918 2.294 4.125 4.125 0 0 1-.6 2.723s-.588.978.633.621 5.807-2.788 8.3-9.845a.519.519 0 0 0 .026-.077 10.931 10.931 0 0 0 .562-1.8 13.44 13.44 0 0 0 2.4.226 13.061 13.061 0 0 0 13.279-12.83" transform="translate(-151.403 .001)" style="fill:#fcc800"/>
    <path data-name="패스 611" d="M211.778 27.755a2.093 2.093 0 0 0 2.009-1.387.784.784 0 0 0 .309.048l1.219-.048a.589.589 0 0 1 .434.157.534.534 0 0 1 .168.411l-.1 2.29a.653.653 0 0 0 .6.694.6.6 0 0 0 .421-.152.683.683 0 0 0 .234-.5l.25-5.907a.648.648 0 0 0-.6-.694.606.606 0 0 0-.421.152.7.7 0 0 0-.233.5l-.051 1.234a.684.684 0 0 1-.657.624l-1.316.051a.892.892 0 0 0-.23.046 2.081 2.081 0 0 0-2.02-1.494 1.99 1.99 0 1 0-.016 3.975m.013-2.922a.936.936 0 1 1-.994.93.959.959 0 0 1 .994-.93" transform="translate(-188.742 -14.726)" style="fill:#231815"/>
    <path data-name="패스 612" d="m238.872 21.783 1.74.054c.346.008.64.209.649.444s-.266.461-.61.5l-1.727.219a.724.724 0 0 0-.632.67l-.028 2.221a.528.528 0 0 0 .18.409.6.6 0 0 0 .444.143l4.03-.329a.652.652 0 0 0 .654-.648.668.668 0 0 0-.761-.534l-2.661.212a.614.614 0 0 1-.46-.144.448.448 0 0 1-.153-.342.7.7 0 0 1 .637-.617l1.78-.221a.677.677 0 0 0 .6-.669l-.075-1.858a.665.665 0 0 0-.65-.612l-2.915-.09a.788.788 0 0 0-.538.183.522.522 0 0 0-.028.788.783.783 0 0 0 .525.219" transform="translate(-206.994 -13.376)" style="fill:#231815"/>
    <path data-name="패스 613" d="M257.047 24.61a.606.606 0 0 0 .422-.152.7.7 0 0 0 .233-.5l.27-6.4a.648.648 0 0 0-.6-.695.6.6 0 0 0-.424.153.7.7 0 0 0-.232.493l-.271 6.4a.7.7 0 0 0 .19.508.61.61 0 0 0 .41.186" transform="translate(-218.697 -10.956)" style="fill:#231815"/>
    <path data-name="패스 614" d="m283.767 27.858.25-5.9a.65.65 0 0 0-.6-.7.606.606 0 0 0-.421.152.689.689 0 0 0-.234.493l-.246 5.909a.689.689 0 0 0 .187.512.619.619 0 0 0 .41.183.588.588 0 0 0 .421-.152.684.684 0 0 0 .235-.5" transform="translate(-235.396 -13.807)" style="fill:#231815"/>
    <path data-name="패스 615" d="M269.073 30.067a1.991 1.991 0 1 0-2.09-2 2.051 2.051 0 0 0 2.09 2m.013-2.925a.937.937 0 1 1-.992.932.965.965 0 0 1 .992-.932" transform="translate(-225.447 -16.948)" style="fill:#231815"/>
    <path data-name="패스 616" d="M255.074 42.625a.547.547 0 0 0-.232-.368.788.788 0 0 0-.552-.135l-2.262.278a.587.587 0 0 1-.444-.119.524.524 0 0 1-.2-.4l-.039-1.074a.649.649 0 0 0-.652-.65.593.593 0 0 0-.409.179.686.686 0 0 0-.193.512l.086 2.374a.545.545 0 0 0 .2.4.6.6 0 0 0 .451.12l3.62-.445a.651.651 0 0 0 .624-.678" transform="translate(-214.624 -26.087)" style="fill:#231815"/>
    <path data-name="패스 617" d="M179.715 64.162a1.04 1.04 0 0 0 1.35-.535l2.011-4.652 1.97 4.669a1.047 1.047 0 0 0 1.345.546 1 1 0 0 0 .559-1.311l-2.91-6.9a1.041 1.041 0 0 0-1.9-.008l-2.973 6.873a1 1 0 0 0 .548 1.317" transform="translate(-169.137 -35.959)" style="fill:#231815"/>
    <path data-name="패스 618" d="M215.433 65.719a1 1 0 0 0-.069-2.006l-6.319-.026a1 1 0 0 0-.085 2.006 3.385 3.385 0 0 0-.347 1.479 3.578 3.578 0 0 0 7.155.032 3.392 3.392 0 0 0-.334-1.485m-3.25 2.948a1.48 1.48 0 1 1 1.526-1.474 1.5 1.5 0 0 1-1.526 1.474" transform="translate(-187.667 -41.369)" style="fill:#231815"/>
    <path data-name="패스 619" d="M288.561 58.276a4.01 4.01 0 1 0 4.093 4.025 4.066 4.066 0 0 0-4.093-4.025m-.027 6.007a2 2 0 1 1 2.059-1.989 2.028 2.028 0 0 1-2.059 1.989" transform="translate(-236.625 -37.853)" style="fill:#231815"/>
    <path data-name="패스 620" d="M185.542 85.127 178.9 85.1a1 1 0 1 0-.008 2.007l2.289.01-.018 4.224a1.03 1.03 0 0 0 2.058.008l.018-4.225 2.292.01a1 1 0 1 0 .008-2.007" transform="translate(-168.356 -55.277)" style="fill:#231815"/>
    <path data-name="패스 621" d="M214.064 55.781a1 1 0 1 0-.009 2.007l2.739.011a1 1 0 1 0 .011-2.008z" transform="translate(-190.884 -36.233)" style="fill:#231815"/>
    <path data-name="패스 622" d="M233.792 61.758a1 1 0 1 0 .008-2.007l-1.727-.009.015-3.372a1.031 1.031 0 0 0-2.061-.007l-.059 13.555h-1.436a1 1 0 1 0-.008 2.007l2.194.012h.538l1.388.006-.022 5.022a1.029 1.029 0 0 0 2.058.008l.027-6.024a1.016 1.016 0 0 0-1.024-1.009l-1.655-.006.036-8.178z" transform="translate(-200.151 -35.962)" style="fill:#231815"/>
    <path data-name="패스 623" d="m314.415 60.083-1.8-.008.015-3.372a1.03 1.03 0 0 0-2.059-.008l-.062 14.131a1.029 1.029 0 0 0 2.057.008l.041-8.749h1.8a1 1 0 1 0 .008-2.007" transform="translate(-253.329 -36.178)" style="fill:#231815"/>
    <path data-name="패스 624" d="M260.1 96.991a4.062 4.062 0 1 0 4.148 4.08 4.122 4.122 0 0 0-4.148-4.08m-.028 6.115a2.054 2.054 0 1 1 2.115-2.045 2.08 2.08 0 0 1-2.115 2.045" transform="translate(-218.359 -63.001)" style="fill:#231815"/>
    <path data-name="패스 625" d="m263.4 58.347-6.143-.028a1.018 1.018 0 0 0-1.034 1l-.026 5.808a1.016 1.016 0 0 0 1.024 1.009l2.04.009-.01 2.259-2.04-.009a1 1 0 1 0-.008 2.007l6.143.028a1 1 0 1 0 .007-2.007l-2.04-.009.01-2.262 2.04.012a1.006 1.006 0 1 0 .011-2.01l-5.113-.021.017-3.8 5.113.021a1 1 0 1 0 .009-2.007" transform="translate(-218.525 -37.882)" style="fill:#231815"/>
</svg>
