<svg xmlns="http://www.w3.org/2000/svg" width="103.984" height="45" viewBox="0 0 103.984 45">
    <defs>
        <clipPath id="ll8v2cljya">
            <path data-name="사각형 1620" style="fill:none" d="M0 0h103.984v45H0z"/>
        </clipPath>
    </defs>
    <g data-name="그룹 32">
        <g data-name="그룹 31" style="clip-path:url(#ll8v2cljya)">
            <path data-name="패스 610" d="M209.91 23.565a11.049 11.049 0 0 0-11-11.1 11.187 11.187 0 0 0-1.379.084 17.513 17.513 0 0 0-33.212-1.137c-.109 0-.216-.015-.324-.014a12.535 12.535 0 1 0-.112 25.069 12.772 12.772 0 0 0 2.448-.228 10.657 10.657 0 0 0 15.566 3.344 9.152 9.152 0 0 0 7.454 1.966 3.611 3.611 0 0 1-.5 2.334s-.491.839.529.533 4.853-2.39 6.941-8.439a.455.455 0 0 0 .022-.066 9.544 9.544 0 0 0 .47-1.541 11.041 11.041 0 0 0 13.1-10.806" transform="translate(-105.926)" style="fill:#fcc800"/>
            <path data-name="패스 611" d="M211.435 27.029a1.752 1.752 0 0 0 1.679-1.189.64.64 0 0 0 .258.041l1.019-.041a.485.485 0 0 1 .363.134.463.463 0 0 1 .141.352l-.082 1.963a.555.555 0 0 0 .5.6.5.5 0 0 0 .352-.13.592.592 0 0 0 .2-.425l.209-5.063a.551.551 0 0 0-.5-.6.5.5 0 0 0-.352.13.6.6 0 0 0-.2.425l-.043 1.058a.579.579 0 0 1-.549.535l-1.1.044a.729.729 0 0 0-.192.039 1.745 1.745 0 1 0-1.7 2.127m.011-2.5a.8.8 0 1 1-.831.8.811.811 0 0 1 .831-.8" transform="translate(-146.705 -15.861)" style="fill:#231815"/>
            <path data-name="패스 612" d="m238.758 21.613 1.454.047c.289.007.535.179.542.381s-.222.4-.51.432l-1.443.182a.614.614 0 0 0-.528.574l-.023 1.9a.457.457 0 0 0 .15.35.49.49 0 0 0 .371.123l3.369-.282a.553.553 0 0 0 .547-.556.56.56 0 0 0-.636-.458l-2.224.182a.5.5 0 0 1-.386-.119.389.389 0 0 1-.128-.293.592.592 0 0 1 .533-.529l1.488-.189a.576.576 0 0 0 .5-.573l-.063-1.592a.562.562 0 0 0-.543-.524l-2.437-.077a.649.649 0 0 0-.449.156.455.455 0 0 0-.023.676.646.646 0 0 0 .439.187" transform="translate(-166.638 -14.408)" style="fill:#231815"/>
            <path data-name="패스 613" d="M256.948 23.5a.5.5 0 0 0 .353-.13.6.6 0 0 0 .195-.425l.226-5.485a.551.551 0 0 0-.5-.6.494.494 0 0 0-.355.131.6.6 0 0 0-.194.422l-.226 5.488a.605.605 0 0 0 .159.436.5.5 0 0 0 .343.159" transform="translate(-179.418 -11.801)" style="fill:#231815"/>
            <path data-name="패스 614" d="m283.561 26.915.209-5.06a.552.552 0 0 0-.5-.6.5.5 0 0 0-.352.13.6.6 0 0 0-.2.423l-.205 5.065a.6.6 0 0 0 .157.439.511.511 0 0 0 .342.157.484.484 0 0 0 .352-.13.592.592 0 0 0 .2-.425" transform="translate(-197.655 -14.872)" style="fill:#231815"/>
            <path data-name="패스 615" d="M268.73 29.5a1.7 1.7 0 1 0-1.746-1.712 1.734 1.734 0 0 0 1.746 1.712m.011-2.507a.8.8 0 1 1-.829.8.816.816 0 0 1 .829-.8" transform="translate(-186.79 -18.255)" style="fill:#231815"/>
            <path data-name="패스 616" d="M254.255 42.273a.471.471 0 0 0-.194-.315.646.646 0 0 0-.462-.115l-1.891.238a.482.482 0 0 1-.371-.1.453.453 0 0 1-.166-.339l-.033-.92a.55.55 0 0 0-.545-.557.49.49 0 0 0-.342.154.6.6 0 0 0-.162.439l.072 2.035a.471.471 0 0 0 .17.343.5.5 0 0 0 .377.1l3.026-.382a.553.553 0 0 0 .522-.581" transform="translate(-174.97 -28.098)" style="fill:#231815"/>
            <path data-name="패스 617" d="M179.612 62.9a.861.861 0 0 0 1.129-.458l1.681-3.987 1.647 4a.863.863 0 0 0 .794.532.842.842 0 0 0 .33-.064.86.86 0 0 0 .468-1.124l-2.432-5.913a.862.862 0 0 0-1.589-.007l-2.485 5.891a.861.861 0 0 0 .458 1.129" transform="translate(-125.294 -38.731)" style="fill:#231815"/>
            <path data-name="패스 618" d="M214.214 65.429a.861.861 0 0 0-.058-1.719l-5.282-.022a.861.861 0 0 0-.071 1.719 2.962 2.962 0 0 0-.29 1.268 2.99 2.99 0 1 0 5.7-1.245m-2.713 2.526a1.268 1.268 0 1 1 1.275-1.263 1.269 1.269 0 0 1-1.275 1.263" transform="translate(-145.53 -44.557)" style="fill:#231815"/>
            <path data-name="패스 619" d="M287.883 58.276a3.436 3.436 0 1 0 3.421 3.45 3.439 3.439 0 0 0-3.421-3.45m-.023 5.149a1.714 1.714 0 1 1 1.721-1.7 1.717 1.717 0 0 1-1.721 1.7" transform="translate(-198.998 -40.772)" style="fill:#231815"/>
            <path data-name="패스 620" d="m184.282 85.123-5.549-.024a.86.86 0 1 0-.007 1.72l1.914.009-.015 3.621a.86.86 0 0 0 1.72.007l.015-3.621 1.916.008a.86.86 0 0 0 .007-1.72" transform="translate(-124.441 -59.538)" style="fill:#231815"/>
            <path data-name="패스 621" d="M213.895 55.781a.86.86 0 0 0-.007 1.72l2.289.009a.86.86 0 1 0 .009-1.721z" transform="translate(-149.043 -39.026)" style="fill:#231815"/>
            <path data-name="패스 622" d="M232.758 60.845a.86.86 0 1 0 .007-1.72l-1.443-.008.012-2.891a.861.861 0 0 0-1.723-.006l-.049 11.618h-1.2a.86.86 0 1 0-.007 1.72l1.834.01h.449l1.16.005-.018 4.3a.86.86 0 1 0 1.72.007l.022-5.164a.86.86 0 0 0-.856-.865l-1.384-.005.03-7.01z" transform="translate(-159.164 -38.734)" style="fill:#231815"/>
            <path data-name="패스 623" d="m313.774 59.457-1.507-.007.012-2.89a.86.86 0 0 0-1.721-.007l-.052 12.112a.86.86 0 1 0 1.72.007l.034-7.5h1.506a.86.86 0 0 0 .007-1.72" transform="translate(-217.24 -38.967)" style="fill:#231815"/>
            <path data-name="패스 624" d="M259.416 96.991a3.481 3.481 0 1 0 3.467 3.5 3.487 3.487 0 0 0-3.467-3.5m-.023 5.241a1.76 1.76 0 1 1 1.767-1.753 1.761 1.761 0 0 1-1.767 1.753" transform="translate(-179.049 -67.858)" style="fill:#231815"/>
            <path data-name="패스 625" d="m262.216 58.343-5.134-.024a.861.861 0 0 0-.865.858l-.021 4.979a.86.86 0 0 0 .856.865l1.7.008-.009 1.937-1.705-.008a.86.86 0 1 0-.007 1.72l5.134.024a.86.86 0 1 0 .006-1.72l-1.7-.007.008-1.939 1.7.01a.862.862 0 0 0 .009-1.723l-4.274-.018.014-3.258 4.274.018a.86.86 0 0 0 .008-1.72" transform="translate(-179.23 -40.802)" style="fill:#231815"/>
        </g>
    </g>
    <g data-name="그룹 34">
        <g data-name="그룹 33" style="clip-path:url(#ll8v2cljya)">
            <path data-name="패스 626" d="M50.9 23.569c0-10.685-11.395-19.347-25.451-19.347S0 12.884 0 23.569s11.395 19.346 25.451 19.346a33.048 33.048 0 0 0 6.908-.721l12.526 5.76-4.218-8.876C46.879 35.55 50.9 29.917 50.9 23.569" transform="translate(0 -2.954)" style="fill:#e83428"/>
            <path data-name="패스 627" d="M89.956 23.526a.5.5 0 0 0 .35-.132.6.6 0 0 0 .192-.422l.2-5.457a.547.547 0 0 0-.5-.591.5.5 0 0 0-.351.132.6.6 0 0 0-.191.423l-.2 5.457a.6.6 0 0 0 .16.435.5.5 0 0 0 .34.156" transform="translate(-62.586 -11.841)" style="fill:#fff"/>
            <path data-name="패스 628" d="m71.8 21.727 1.447.04c.29.007.533.176.541.376s-.218.394-.506.432l-1.432.187a.61.61 0 0 0-.523.575l-.016 1.893a.455.455 0 0 0 .151.348.484.484 0 0 0 .369.118l3.349-.296a.552.552 0 0 0 .542-.556.558.558 0 0 0-.635-.453l-2.21.193a.51.51 0 0 1-.384-.117.379.379 0 0 1-.13-.291.588.588 0 0 1 .526-.531l1.48-.193a.572.572 0 0 0 .494-.574l-.068-1.578a.56.56 0 0 0-.543-.52l-2.425-.066a.638.638 0 0 0-.446.159.453.453 0 0 0-.02.67.639.639 0 0 0 .437.184" transform="translate(-49.83 -14.491)" style="fill:#fff"/>
            <path data-name="패스 629" d="M83.648 40.12a.5.5 0 0 0-.34.157.6.6 0 0 0-.159.436l.082 2.021a.457.457 0 0 0 .168.341.484.484 0 0 0 .375.1l3.009-.393a.548.548 0 0 0 .515-.578.469.469 0 0 0-.193-.313.642.642 0 0 0-.461-.114l-1.879.246a.48.48 0 0 1-.37-.1.452.452 0 0 1-.166-.338l-.037-.914a.551.551 0 0 0-.545-.553" transform="translate(-58.173 -28.069)" style="fill:#fff"/>
            <path data-name="패스 630" d="m46.592 26.03 1.013-.046a.484.484 0 0 1 .362.131.457.457 0 0 1 .139.35l-.071 1.952a.549.549 0 0 0 .5.59.5.5 0 0 0 .35-.132.6.6 0 0 0 .193-.423l.185-5.036a.551.551 0 0 0-.5-.591.5.5 0 0 0-.35.133.6.6 0 0 0-.192.422l-.038 1.052a.575.575 0 0 1-.545.536l-1.094.049a.669.669 0 0 0-.189.038 1.692 1.692 0 1 0-.02.934.665.665 0 0 0 .258.041m-1.923.253a.8.8 0 1 1 .821-.8.81.81 0 0 1-.821.8" transform="translate(-30.032 -15.969)" style="fill:#fff"/>
            <path data-name="패스 631" d="M116.615 21.77a.548.548 0 0 0-.5-.591.5.5 0 0 0-.351.132.6.6 0 0 0-.192.421l-.183 5.037a.6.6 0 0 0 .16.435.487.487 0 0 0 .69.023.6.6 0 0 0 .193-.423z" transform="translate(-80.729 -14.817)" style="fill:#fff"/>
            <path data-name="패스 632" d="M101.654 29.426a1.695 1.695 0 1 0-1.744-1.694 1.722 1.722 0 0 0 1.744 1.694m0-2.492a.8.8 0 1 1-.822.8.81.81 0 0 1 .822-.8" transform="translate(-69.9 -18.217)" style="fill:#fff"/>
            <path data-name="패스 633" d="M13.56 60.127h4.04v4.708h1.617v-6.273H13.56z" transform="translate(-9.487 -40.972)" style="fill:#fff"/>
            <path data-name="패스 634" d="M16.854 73.328h-1.618v3.65H13.56v1.57h5.658v-1.57h-2.364z" transform="translate(-9.487 -51.302)" style="fill:#fff"/>
            <path data-name="패스 635" d="M39.007 56.9H37.39v12.911h1.617v-8.067h2.221v-1.571h-2.221z" transform="translate(-26.159 -39.809)" style="fill:#fff"/>
            <path data-name="패스 636" d="M144.737 60.173V56.9h-1.617v12.911h1.617v-8.067h2.222v-1.571z" transform="translate(-100.131 -39.809)" style="fill:#fff"/>
            <path data-name="패스 637" d="M121.508 58.454a3.159 3.159 0 1 0 3.251 3.158 3.209 3.209 0 0 0-3.251-3.158m0 4.748a1.592 1.592 0 1 1 1.638-1.591 1.617 1.617 0 0 1-1.638 1.591" transform="translate(-82.736 -40.896)" style="fill:#fff"/>
            <path data-name="패스 638" d="M100.329 60.152v-1.568H93.9v6.236h2.473v1.856H93.9v1.574h6.433v-1.574h-2.347V64.82h2.343v-1.573h-4.816v-3.1z" transform="translate(-65.692 -40.987)" style="fill:#fff"/>
            <path data-name="패스 639" d="M96.954 94.47a3.212 3.212 0 1 0 3.306 3.211 3.263 3.263 0 0 0-3.306-3.211m0 4.847a1.638 1.638 0 1 1 1.685-1.637 1.663 1.663 0 0 1-1.685 1.637" transform="translate(-65.519 -66.094)" style="fill:#fff"/>
            <path data-name="사각형 1621" transform="translate(17.397 17.088)" style="fill:#fff" d="M0 0h3.563v1.425H0z"/>
            <path data-name="패스 640" d="M74.843 56.9h-1.614v11.347h-1.935v1.563h4.04v4.705h1.618v-6.268h-2.109v-6.5h2.224v-1.574h-2.224z" transform="translate(-49.879 -39.809)" style="fill:#fff"/>
            <path data-name="패스 641" d="m59.131 65.436-.022-.049h.517V63.9h-6.174v1.489h.518l-.021.049a2.708 2.708 0 0 0-.221 1.071 2.816 2.816 0 0 0 5.629 0 2.643 2.643 0 0 0-.226-1.071m-2.589 2.284a1.214 1.214 0 1 1 1.25-1.214 1.233 1.233 0 0 1-1.25 1.214" transform="translate(-37.397 -44.705)" style="fill:#fff"/>
        </g>
    </g>
</svg>
